<?xml version="1.0" encoding="UTF-8" standalone="no"?>
<!DOCTYPE svg PUBLIC "-//W3C//DTD SVG 1.1//EN"
 "http://www.w3.org/Graphics/SVG/1.1/DTD/svg11.dtd">
<!-- Generated by graphviz version 2.36.0 (20140111.2315)
 -->
<!-- Title: Aaaa Pages: 1 -->
<svg width="764pt" height="479pt"
 viewBox="0.00 0.00 764.00 479.00" xmlns="http://www.w3.org/2000/svg" xmlns:xlink="http://www.w3.org/1999/xlink">
<g id="graph0" class="graph" transform="scale(1 1) rotate(0) translate(4 475)">
<title>Aaaa</title>
<polygon fill="white" stroke="none" points="-4,4 -4,-475 760,-475 760,4 -4,4"/>
<g id="clust1" class="cluster"><title>clusterWtf</title>
<polygon fill="none" stroke="black" points="390,-136 390,-211 748,-211 748,-136 390,-136"/>
<text text-anchor="middle" x="569" y="-195.8" font-family="Times,serif" font-size="14.00">Wtf?</text>
</g>
<!-- a1 -->
<g id="node1" class="node"><title>a1</title>
<path fill="lightgrey" stroke="black" d="M239,-471C239,-471 209,-471 209,-471 203,-471 197,-465 197,-459 197,-459 197,-447 197,-447 197,-441 203,-435 209,-435 209,-435 239,-435 239,-435 245,-435 251,-441 251,-447 251,-447 251,-459 251,-459 251,-465 245,-471 239,-471"/>
<text text-anchor="middle" x="224" y="-449.3" font-family="Times,serif" font-size="14.00">a1</text>
</g>
<!-- b1 -->
<g id="node2" class="node"><title>b1</title>
<path fill="lightgrey" stroke="black" d="M282,-399C282,-399 252,-399 252,-399 246,-399 240,-393 240,-387 240,-387 240,-375 240,-375 240,-369 246,-363 252,-363 252,-363 282,-363 282,-363 288,-363 294,-369 294,-375 294,-375 294,-387 294,-387 294,-393 288,-399 282,-399"/>
<text text-anchor="middle" x="267" y="-377.3" font-family="Times,serif" font-size="14.00">b1</text>
</g>
<!-- a1&#45;&gt;b1 -->
<g id="edge1" class="edge"><title>a1&#45;&gt;b1</title>
<path fill="none" stroke="black" d="M234.629,-434.697C239.628,-426.559 245.691,-416.689 251.212,-407.701"/>
<polygon fill="black" stroke="black" points="254.241,-409.457 256.493,-399.104 248.277,-405.793 254.241,-409.457"/>
</g>
<!-- a3 -->
<g id="node3" class="node"><title>a3</title>
<path fill="lightgrey" stroke="black" d="M196,-399C196,-399 166,-399 166,-399 160,-399 154,-393 154,-387 154,-387 154,-375 154,-375 154,-369 160,-363 166,-363 166,-363 196,-363 196,-363 202,-363 208,-369 208,-375 208,-375 208,-387 208,-387 208,-393 202,-399 196,-399"/>
<text text-anchor="middle" x="181" y="-377.3" font-family="Times,serif" font-size="14.00">a3</text>
</g>
<!-- a1&#45;&gt;a3 -->
<g id="edge2" class="edge"><title>a1&#45;&gt;a3</title>
<path fill="none" stroke="black" d="M213.371,-434.697C208.372,-426.559 202.309,-416.689 196.788,-407.701"/>
<polygon fill="black" stroke="black" points="199.723,-405.793 191.507,-399.104 193.759,-409.457 199.723,-405.793"/>
</g>
<!-- b19 -->
<g id="node24" class="node"><title>b19</title>
<path fill="lightgrey" stroke="black" d="M361,-327C361,-327 331,-327 331,-327 325,-327 319,-321 319,-315 319,-315 319,-303 319,-303 319,-297 325,-291 331,-291 331,-291 361,-291 361,-291 367,-291 373,-297 373,-303 373,-303 373,-315 373,-315 373,-321 367,-327 361,-327"/>
<text text-anchor="middle" x="346" y="-305.3" font-family="Times,serif" font-size="14.00">b19</text>
</g>
<!-- b1&#45;&gt;b19 -->
<g id="edge24" class="edge"><title>b1&#45;&gt;b19</title>
<path fill="none" stroke="black" d="M286.528,-362.697C296.382,-353.965 308.486,-343.24 319.196,-333.75"/>
<polygon fill="black" stroke="black" points="321.533,-336.356 326.697,-327.104 316.891,-331.117 321.533,-336.356"/>
</g>
<!-- b10 -->
<g id="node11" class="node"><title>b10</title>
<path fill="lightgrey" stroke="black" d="M224,-36C224,-36 194,-36 194,-36 188,-36 182,-30 182,-24 182,-24 182,-12 182,-12 182,-6 188,-0 194,-0 194,-0 224,-0 224,-0 230,-0 236,-6 236,-12 236,-12 236,-24 236,-24 236,-30 230,-36 224,-36"/>
<text text-anchor="middle" x="209" y="-14.3" font-family="Times,serif" font-size="14.00">b10</text>
</g>
<!-- a3&#45;&gt;b10 -->
<g id="edge12" class="edge"><title>a3&#45;&gt;b10</title>
<path fill="none" stroke="black" d="M175.536,-362.713C167.647,-336.175 154,-283.672 154,-238 154,-238 154,-238 154,-161 154,-120.553 157.119,-109.199 173,-72 177.084,-62.4333 182.988,-52.7836 188.838,-44.3881"/>
<polygon fill="black" stroke="black" points="191.78,-46.2938 194.835,-36.1492 186.12,-42.1741 191.78,-46.2938"/>
</g>
<!-- b2 -->
<g id="node4" class="node"><title>b2</title>
<path fill="lightgrey" stroke="black" d="M728,-180C728,-180 698,-180 698,-180 692,-180 686,-174 686,-168 686,-168 686,-156 686,-156 686,-150 692,-144 698,-144 698,-144 728,-144 728,-144 734,-144 740,-150 740,-156 740,-156 740,-168 740,-168 740,-174 734,-180 728,-180"/>
<text text-anchor="middle" x="713" y="-158.3" font-family="Times,serif" font-size="14.00">b2</text>
</g>
<!-- B -->
<g id="node5" class="node"><title>B</title>
<path fill="lightgrey" stroke="black" d="M548,-108C548,-108 518,-108 518,-108 512,-108 506,-102 506,-96 506,-96 506,-84 506,-84 506,-78 512,-72 518,-72 518,-72 548,-72 548,-72 554,-72 560,-78 560,-84 560,-84 560,-96 560,-96 560,-102 554,-108 548,-108"/>
<text text-anchor="middle" x="533" y="-86.3" font-family="Times,serif" font-size="14.00">B</text>
</g>
<!-- b2&#45;&gt;B -->
<g id="edge3" class="edge"><title>b2&#45;&gt;B</title>
<path fill="none" stroke="black" d="M690.879,-143.847C686.447,-140.934 681.703,-138.159 677,-136 634.663,-116.566 617.705,-123.835 569.929,-107.916"/>
<polygon fill="black" stroke="black" points="570.887,-104.543 560.292,-104.536 568.57,-111.149 570.887,-104.543"/>
</g>
<!-- b7 -->
<g id="node10" class="node"><title>b7</title>
<path fill="lightgrey" stroke="black" d="M548,-36C548,-36 518,-36 518,-36 512,-36 506,-30 506,-24 506,-24 506,-12 506,-12 506,-6 512,-0 518,-0 518,-0 548,-0 548,-0 554,-0 560,-6 560,-12 560,-12 560,-24 560,-24 560,-30 554,-36 548,-36"/>
<text text-anchor="middle" x="533" y="-14.3" font-family="Times,serif" font-size="14.00">b7</text>
</g>
<!-- B&#45;&gt;b7 -->
<g id="edge8" class="edge"><title>B&#45;&gt;b7</title>
<path fill="none" stroke="black" d="M533,-71.6966C533,-63.9827 533,-54.7125 533,-46.1124"/>
<polygon fill="black" stroke="black" points="536.5,-46.1043 533,-36.1043 529.5,-46.1044 536.5,-46.1043"/>
</g>
<!-- B&#45;&gt;b10 -->
<g id="edge9" class="edge"><title>B&#45;&gt;b10</title>
<path fill="none" stroke="black" d="M505.685,-82.3838C492.245,-79.171 475.792,-75.3012 461,-72 384.823,-54.999 295.348,-36.5373 246.14,-26.5138"/>
<polygon fill="black" stroke="black" points="246.767,-23.0697 236.27,-24.5066 245.372,-29.9293 246.767,-23.0697"/>
</g>
<!-- b16 -->
<g id="node12" class="node"><title>b16</title>
<path fill="lightgrey" stroke="black" d="M620,-36C620,-36 590,-36 590,-36 584,-36 578,-30 578,-24 578,-24 578,-12 578,-12 578,-6 584,-0 590,-0 590,-0 620,-0 620,-0 626,-0 632,-6 632,-12 632,-12 632,-24 632,-24 632,-30 626,-36 620,-36"/>
<text text-anchor="middle" x="605" y="-14.3" font-family="Times,serif" font-size="14.00">b16</text>
</g>
<!-- B&#45;&gt;b16 -->
<g id="edge10" class="edge"><title>B&#45;&gt;b16</title>
<path fill="none" stroke="black" d="M550.798,-71.6966C559.604,-63.135 570.382,-52.6562 580.001,-43.3045"/>
<polygon fill="black" stroke="black" points="582.677,-45.5846 587.407,-36.1043 577.797,-40.5657 582.677,-45.5846"/>
</g>
<!-- b3 -->
<g id="node6" class="node"><title>b3</title>
<path fill="lightgrey" stroke="black" d="M656,-180C656,-180 626,-180 626,-180 620,-180 614,-174 614,-168 614,-168 614,-156 614,-156 614,-150 620,-144 626,-144 626,-144 656,-144 656,-144 662,-144 668,-150 668,-156 668,-156 668,-168 668,-168 668,-174 662,-180 656,-180"/>
<text text-anchor="middle" x="641" y="-158.3" font-family="Times,serif" font-size="14.00">b3</text>
</g>
<!-- b3&#45;&gt;B -->
<g id="edge4" class="edge"><title>b3&#45;&gt;B</title>
<path fill="none" stroke="black" d="M616.709,-143.895C612.815,-141.221 608.812,-138.513 605,-136 593.329,-128.307 580.425,-120.139 568.803,-112.903"/>
<polygon fill="black" stroke="black" points="570.551,-109.868 560.207,-107.575 566.863,-115.818 570.551,-109.868"/>
</g>
<!-- b4 -->
<g id="node7" class="node"><title>b4</title>
<path fill="lightgrey" stroke="black" d="M584,-180C584,-180 554,-180 554,-180 548,-180 542,-174 542,-168 542,-168 542,-156 542,-156 542,-150 548,-144 554,-144 554,-144 584,-144 584,-144 590,-144 596,-150 596,-156 596,-156 596,-168 596,-168 596,-174 590,-180 584,-180"/>
<text text-anchor="middle" x="569" y="-158.3" font-family="Times,serif" font-size="14.00">b4</text>
</g>
<!-- b4&#45;&gt;B -->
<g id="edge5" class="edge"><title>b4&#45;&gt;B</title>
<path fill="none" stroke="black" d="M560.101,-143.697C556.003,-135.728 551.051,-126.1 546.507,-117.264"/>
<polygon fill="black" stroke="black" points="549.483,-115.396 541.797,-108.104 543.258,-118.598 549.483,-115.396"/>
</g>
<!-- b5 -->
<g id="node8" class="node"><title>b5</title>
<path fill="lightgrey" stroke="black" d="M512,-180C512,-180 482,-180 482,-180 476,-180 470,-174 470,-168 470,-168 470,-156 470,-156 470,-150 476,-144 482,-144 482,-144 512,-144 512,-144 518,-144 524,-150 524,-156 524,-156 524,-168 524,-168 524,-174 518,-180 512,-180"/>
<text text-anchor="middle" x="497" y="-158.3" font-family="Times,serif" font-size="14.00">b5</text>
</g>
<!-- b5&#45;&gt;B -->
<g id="edge6" class="edge"><title>b5&#45;&gt;B</title>
<path fill="none" stroke="black" d="M505.899,-143.697C509.997,-135.728 514.949,-126.1 519.493,-117.264"/>
<polygon fill="black" stroke="black" points="522.742,-118.598 524.203,-108.104 516.517,-115.396 522.742,-118.598"/>
</g>
<!-- b6 -->
<g id="node9" class="node"><title>b6</title>
<path fill="lightgrey" stroke="black" d="M440,-180C440,-180 410,-180 410,-180 404,-180 398,-174 398,-168 398,-168 398,-156 398,-156 398,-150 404,-144 410,-144 410,-144 440,-144 440,-144 446,-144 452,-150 452,-156 452,-156 452,-168 452,-168 452,-174 446,-180 440,-180"/>
<text text-anchor="middle" x="425" y="-158.3" font-family="Times,serif" font-size="14.00">b6</text>
</g>
<!-- b6&#45;&gt;B -->
<g id="edge7" class="edge"><title>b6&#45;&gt;B</title>
<path fill="none" stroke="black" d="M449.291,-143.895C453.185,-141.221 457.188,-138.513 461,-136 472.671,-128.307 485.575,-120.139 497.197,-112.903"/>
<polygon fill="black" stroke="black" points="499.137,-115.818 505.793,-107.575 495.449,-109.868 499.137,-115.818"/>
</g>
<!-- a2 -->
<g id="node13" class="node"><title>a2</title>
<path fill="lightgrey" stroke="black" d="M224,-108C224,-108 194,-108 194,-108 188,-108 182,-102 182,-96 182,-96 182,-84 182,-84 182,-78 188,-72 194,-72 194,-72 224,-72 224,-72 230,-72 236,-78 236,-84 236,-84 236,-96 236,-96 236,-102 230,-108 224,-108"/>
<text text-anchor="middle" x="209" y="-86.3" font-family="Times,serif" font-size="14.00">a2</text>
</g>
<!-- a2&#45;&gt;b10 -->
<g id="edge11" class="edge"><title>a2&#45;&gt;b10</title>
<path fill="none" stroke="black" d="M209,-71.6966C209,-63.9827 209,-54.7125 209,-46.1124"/>
<polygon fill="black" stroke="black" points="212.5,-46.1043 209,-36.1043 205.5,-46.1044 212.5,-46.1043"/>
</g>
<!-- a4 -->
<g id="node14" class="node"><title>a4</title>
<path fill="lightgrey" stroke="black" d="M296,-108C296,-108 266,-108 266,-108 260,-108 254,-102 254,-96 254,-96 254,-84 254,-84 254,-78 260,-72 266,-72 266,-72 296,-72 296,-72 302,-72 308,-78 308,-84 308,-84 308,-96 308,-96 308,-102 302,-108 296,-108"/>
<text text-anchor="middle" x="281" y="-86.3" font-family="Times,serif" font-size="14.00">a4</text>
</g>
<!-- a4&#45;&gt;b10 -->
<g id="edge13" class="edge"><title>a4&#45;&gt;b10</title>
<path fill="none" stroke="black" d="M263.202,-71.6966C254.396,-63.135 243.618,-52.6562 233.999,-43.3045"/>
<polygon fill="black" stroke="black" points="236.203,-40.5657 226.593,-36.1043 231.323,-45.5846 236.203,-40.5657"/>
</g>
<!-- a5 -->
<g id="node15" class="node"><title>a5</title>
<path fill="lightgrey" stroke="black" d="M440,-108C440,-108 410,-108 410,-108 404,-108 398,-102 398,-96 398,-96 398,-84 398,-84 398,-78 404,-72 410,-72 410,-72 440,-72 440,-72 446,-72 452,-78 452,-84 452,-84 452,-96 452,-96 452,-102 446,-108 440,-108"/>
<text text-anchor="middle" x="425" y="-86.3" font-family="Times,serif" font-size="14.00">a5</text>
</g>
<!-- a5&#45;&gt;b10 -->
<g id="edge14" class="edge"><title>a5&#45;&gt;b10</title>
<path fill="none" stroke="black" d="M397.672,-75.5601C394.771,-74.2943 391.842,-73.082 389,-72 340.578,-53.5655 282.846,-37.5797 246.062,-28.1153"/>
<polygon fill="black" stroke="black" points="246.822,-24.6972 236.268,-25.6222 245.095,-31.4809 246.822,-24.6972"/>
</g>
<!-- a6 -->
<g id="node16" class="node"><title>a6</title>
<path fill="lightgrey" stroke="black" d="M42,-108C42,-108 12,-108 12,-108 6,-108 0,-102 0,-96 0,-96 0,-84 0,-84 0,-78 6,-72 12,-72 12,-72 42,-72 42,-72 48,-72 54,-78 54,-84 54,-84 54,-96 54,-96 54,-102 48,-108 42,-108"/>
<text text-anchor="middle" x="27" y="-86.3" font-family="Times,serif" font-size="14.00">a6</text>
</g>
<!-- a6&#45;&gt;b10 -->
<g id="edge15" class="edge"><title>a6&#45;&gt;b10</title>
<path fill="none" stroke="black" d="M54.0057,-75.9175C57.0225,-74.5547 60.065,-73.2226 63,-72 99.6773,-56.7217 142.5,-41.4732 172.244,-31.2815"/>
<polygon fill="black" stroke="black" points="173.464,-34.5634 181.802,-28.0263 171.207,-27.9372 173.464,-34.5634"/>
</g>
<!-- a7 -->
<g id="node17" class="node"><title>a7</title>
<path fill="lightgrey" stroke="black" d="M114,-108C114,-108 84,-108 84,-108 78,-108 72,-102 72,-96 72,-96 72,-84 72,-84 72,-78 78,-72 84,-72 84,-72 114,-72 114,-72 120,-72 126,-78 126,-84 126,-84 126,-96 126,-96 126,-102 120,-108 114,-108"/>
<text text-anchor="middle" x="99" y="-86.3" font-family="Times,serif" font-size="14.00">a7</text>
</g>
<!-- a7&#45;&gt;b10 -->
<g id="edge16" class="edge"><title>a7&#45;&gt;b10</title>
<path fill="none" stroke="black" d="M125.909,-71.8761C140.158,-62.8083 157.846,-51.5523 173.236,-41.7592"/>
<polygon fill="black" stroke="black" points="175.43,-44.5114 181.988,-36.1898 171.672,-38.6057 175.43,-44.5114"/>
</g>
<!-- a8 -->
<g id="node18" class="node"><title>a8</title>
<path fill="lightgrey" stroke="black" d="M620,-108C620,-108 590,-108 590,-108 584,-108 578,-102 578,-96 578,-96 578,-84 578,-84 578,-78 584,-72 590,-72 590,-72 620,-72 620,-72 626,-72 632,-78 632,-84 632,-84 632,-96 632,-96 632,-102 626,-108 620,-108"/>
<text text-anchor="middle" x="605" y="-86.3" font-family="Times,serif" font-size="14.00">a8</text>
</g>
<!-- a8&#45;&gt;b16 -->
<g id="edge17" class="edge"><title>a8&#45;&gt;b16</title>
<path fill="none" stroke="black" d="M605,-71.6966C605,-63.9827 605,-54.7125 605,-46.1124"/>
<polygon fill="black" stroke="black" points="608.5,-46.1043 605,-36.1043 601.5,-46.1044 608.5,-46.1043"/>
</g>
<!-- a9 -->
<g id="node19" class="node"><title>a9</title>
<path fill="lightgrey" stroke="black" d="M296,-180C296,-180 266,-180 266,-180 260,-180 254,-174 254,-168 254,-168 254,-156 254,-156 254,-150 260,-144 266,-144 266,-144 296,-144 296,-144 302,-144 308,-150 308,-156 308,-156 308,-168 308,-168 308,-174 302,-180 296,-180"/>
<text text-anchor="middle" x="281" y="-158.3" font-family="Times,serif" font-size="14.00">a9</text>
</g>
<!-- a9&#45;&gt;a5 -->
<g id="edge26" class="edge"><title>a9&#45;&gt;a5</title>
<path fill="none" stroke="black" d="M304.12,-143.766C308.301,-140.994 312.701,-138.287 317,-136 344.825,-121.196 355.657,-121.404 388.582,-107.966"/>
<polygon fill="black" stroke="black" points="390.107,-111.121 397.966,-104.015 387.391,-104.669 390.107,-111.121"/>
</g>
<!-- b17 -->
<g id="node20" class="node"><title>b17</title>
<path fill="lightgrey" stroke="black" d="M368,-108C368,-108 338,-108 338,-108 332,-108 326,-102 326,-96 326,-96 326,-84 326,-84 326,-78 332,-72 338,-72 338,-72 368,-72 368,-72 374,-72 380,-78 380,-84 380,-84 380,-96 380,-96 380,-102 374,-108 368,-108"/>
<text text-anchor="middle" x="353" y="-86.3" font-family="Times,serif" font-size="14.00">b17</text>
</g>
<!-- a9&#45;&gt;b17 -->
<g id="edge18" class="edge"><title>a9&#45;&gt;b17</title>
<path fill="none" stroke="black" d="M298.798,-143.697C307.604,-135.135 318.382,-124.656 328.001,-115.304"/>
<polygon fill="black" stroke="black" points="330.677,-117.585 335.407,-108.104 325.797,-112.566 330.677,-117.585"/>
</g>
<!-- a10 -->
<g id="node21" class="node"><title>a10</title>
<path fill="lightgrey" stroke="black" d="M368,-255C368,-255 338,-255 338,-255 332,-255 326,-249 326,-243 326,-243 326,-231 326,-231 326,-225 332,-219 338,-219 338,-219 368,-219 368,-219 374,-219 380,-225 380,-231 380,-231 380,-243 380,-243 380,-249 374,-255 368,-255"/>
<text text-anchor="middle" x="353" y="-233.3" font-family="Times,serif" font-size="14.00">a10</text>
</g>
<!-- a10&#45;&gt;b5 -->
<g id="edge20" class="edge"><title>a10&#45;&gt;b5</title>
<path fill="none" stroke="black" d="M380.313,-234.838C403.45,-232.71 436.65,-226.863 461,-211 469.68,-205.345 477.049,-196.84 482.816,-188.552"/>
<polygon fill="black" stroke="black" points="485.771,-190.428 488.233,-180.123 479.882,-186.643 485.771,-190.428"/>
</g>
<!-- b18 -->
<g id="node22" class="node"><title>b18</title>
<path fill="lightgrey" stroke="black" d="M368,-180C368,-180 338,-180 338,-180 332,-180 326,-174 326,-168 326,-168 326,-156 326,-156 326,-150 332,-144 338,-144 338,-144 368,-144 368,-144 374,-144 380,-150 380,-156 380,-156 380,-168 380,-168 380,-174 374,-180 368,-180"/>
<text text-anchor="middle" x="353" y="-158.3" font-family="Times,serif" font-size="14.00">b18</text>
</g>
<!-- a10&#45;&gt;b18 -->
<g id="edge19" class="edge"><title>a10&#45;&gt;b18</title>
<path fill="none" stroke="black" d="M353,-218.7C353,-210.245 353,-199.869 353,-190.373"/>
<polygon fill="black" stroke="black" points="356.5,-190.176 353,-180.176 349.5,-190.176 356.5,-190.176"/>
</g>
<!-- b18&#45;&gt;a5 -->
<g id="edge23" class="edge"><title>b18&#45;&gt;a5</title>
<path fill="none" stroke="black" d="M370.798,-143.697C379.604,-135.135 390.382,-124.656 400.001,-115.304"/>
<polygon fill="black" stroke="black" points="402.677,-117.585 407.407,-108.104 397.797,-112.566 402.677,-117.585"/>
</g>
<!-- a11 -->
<g id="node23" class="node"><title>a11</title>
<path fill="lightgrey" stroke="black" d="M361,-399C361,-399 331,-399 331,-399 325,-399 319,-393 319,-387 319,-387 319,-375 319,-375 319,-369 325,-363 331,-363 331,-363 361,-363 361,-363 367,-363 373,-369 373,-375 373,-375 373,-387 373,-387 373,-393 367,-399 361,-399"/>
<text text-anchor="middle" x="346" y="-377.3" font-family="Times,serif" font-size="14.00">a11</text>
</g>
<!-- a11&#45;&gt;b19 -->
<g id="edge21" class="edge"><title>a11&#45;&gt;b19</title>
<path fill="none" stroke="black" d="M346,-362.697C346,-354.983 346,-345.712 346,-337.112"/>
<polygon fill="black" stroke="black" points="349.5,-337.104 346,-327.104 342.5,-337.104 349.5,-337.104"/>
</g>
<!-- b19&#45;&gt;a10 -->
<g id="edge25" class="edge"><title>b19&#45;&gt;a10</title>
<path fill="none" stroke="black" d="M347.73,-290.697C348.502,-282.983 349.429,-273.712 350.289,-265.112"/>
<polygon fill="black" stroke="black" points="353.777,-265.403 351.29,-255.104 346.812,-264.706 353.777,-265.403"/>
</g>
<!-- a12 -->
<g id="node25" class="node"><title>a12</title>
<path fill="lightgrey" stroke="black" d="M260,-255C260,-255 230,-255 230,-255 224,-255 218,-249 218,-243 218,-243 218,-231 218,-231 218,-225 224,-219 230,-219 230,-219 260,-219 260,-219 266,-219 272,-225 272,-231 272,-231 272,-243 272,-243 272,-249 266,-255 260,-255"/>
<text text-anchor="middle" x="245" y="-233.3" font-family="Times,serif" font-size="14.00">a12</text>
</g>
<!-- a12&#45;&gt;b18 -->
<g id="edge27" class="edge"><title>a12&#45;&gt;b18</title>
<path fill="none" stroke="black" d="M272.118,-230.632C286.443,-226.844 303.749,-220.676 317,-211 325.155,-205.045 332.296,-196.717 338.021,-188.668"/>
<polygon fill="black" stroke="black" points="341.048,-190.436 343.659,-180.168 335.215,-186.566 341.048,-190.436"/>
</g>
<!-- b20 -->
<g id="node26" class="node"><title>b20</title>
<path fill="lightgrey" stroke="black" d="M224,-180C224,-180 194,-180 194,-180 188,-180 182,-174 182,-168 182,-168 182,-156 182,-156 182,-150 188,-144 194,-144 194,-144 224,-144 224,-144 230,-144 236,-150 236,-156 236,-156 236,-168 236,-168 236,-174 230,-180 224,-180"/>
<text text-anchor="middle" x="209" y="-158.3" font-family="Times,serif" font-size="14.00">b20</text>
</g>
<!-- a12&#45;&gt;b20 -->
<g id="edge22" class="edge"><title>a12&#45;&gt;b20</title>
<path fill="none" stroke="black" d="M236.469,-218.7C232.12,-209.882 226.74,-198.973 221.897,-189.153"/>
<polygon fill="black" stroke="black" points="225.032,-187.596 217.47,-180.176 218.754,-190.693 225.032,-187.596"/>
</g>
<!-- b20&#45;&gt;a2 -->
<g id="edge28" class="edge"><title>b20&#45;&gt;a2</title>
<path fill="none" stroke="black" d="M209,-143.697C209,-135.983 209,-126.712 209,-118.112"/>
<polygon fill="black" stroke="black" points="212.5,-118.104 209,-108.104 205.5,-118.104 212.5,-118.104"/>
</g>
</g>
</svg>
