<?xml version="1.0" encoding="UTF-8" standalone="no"?>
<!DOCTYPE svg PUBLIC "-//W3C//DTD SVG 1.1//EN"
 "http://www.w3.org/Graphics/SVG/1.1/DTD/svg11.dtd">
<!-- Generated by graphviz version 2.36.0 (20140111.2315)
 -->
<!-- Title: A Pages: 1 -->
<svg width="660pt" height="430pt"
 viewBox="0.00 0.00 660.00 430.00" xmlns="http://www.w3.org/2000/svg" xmlns:xlink="http://www.w3.org/1999/xlink">
<g id="graph0" class="graph" transform="scale(1 1) rotate(0) translate(4 426)">
<title>A</title>
<polygon fill="white" stroke="none" points="-4,4 -4,-426 656,-426 656,4 -4,4"/>
<g id="clust1" class="cluster"><title>clusterWtf</title>
<defs>
<linearGradient id="l_0" gradientUnits="userSpaceOnUse" x1="102.371" y1="-39.163" x2="102.371" y2="-269.163" >
<stop offset="0" style="stop-color:orange;stop-opacity:1.;"/>
<stop offset="1" style="stop-color:white;stop-opacity:1.;"/>
</linearGradient>
</defs>
<path fill="url(#l_0)" stroke="gray" d="M12.3712,-39.163C12.3712,-39.163 192.371,-39.163 192.371,-39.163 198.371,-39.163 204.371,-45.163 204.371,-51.163 204.371,-51.163 204.371,-257.163 204.371,-257.163 204.371,-263.163 198.371,-269.163 192.371,-269.163 192.371,-269.163 12.3712,-269.163 12.3712,-269.163 6.37124,-269.163 0.371237,-263.163 0.371237,-257.163 0.371237,-257.163 0.371237,-51.163 0.371237,-51.163 0.371237,-45.163 6.37124,-39.163 12.3712,-39.163"/>
<text text-anchor="middle" x="102.371" y="-253.963" font-family="Times,serif" font-size="14.00">Wtf?</text>
</g>
<!-- a1&#45;&gt;b1 -->
<g id="edge1" class="edge"><title>a1&#45;&gt;b1</title>
<path fill="none" stroke="gray" stroke-width="0.8" d="M289.661,-397.254C280.111,-394.748 269.216,-391.889 258.994,-389.207"/>
<polygon fill="gray" stroke="gray" stroke-width="0.8" points="249.07,-386.603 259.885,-384.788 253.906,-387.872 258.743,-389.141 258.743,-389.141 258.743,-389.141 253.906,-387.872 257.6,-393.494 249.07,-386.603 249.07,-386.603"/>
</g>
<!-- a1&#45;&gt;a3 -->
<g id="edge2" class="edge"><title>a1&#45;&gt;a3</title>
<path fill="none" stroke="gray" stroke-width="0.8" d="M333.015,-386.204C341.35,-376.784 351.665,-365.126 360.789,-354.814"/>
<polygon fill="gray" stroke="gray" stroke-width="0.8" points="367.482,-347.25 364.225,-357.721 364.168,-350.995 360.855,-354.739 360.855,-354.739 360.855,-354.739 364.168,-350.995 357.485,-351.757 367.482,-347.25 367.482,-347.25"/>
</g>
<!-- b1&#45;&gt;b19 -->
<g id="edge25" class="edge"><title>b1&#45;&gt;b19</title>
<path fill="none" stroke="gray" stroke-width="0.8" d="M206.386,-361.285C204.794,-359.197 203.246,-357.066 201.836,-354.974 195.025,-344.864 188.393,-333.195 182.923,-322.908"/>
<polygon fill="gray" stroke="gray" stroke-width="0.8" points="178.253,-313.933 186.861,-320.727 180.561,-318.369 182.869,-322.804 182.869,-322.804 182.869,-322.804 180.561,-318.369 178.877,-324.881 178.253,-313.933 178.253,-313.933"/>
</g>
<!-- a3&#45;&gt;b10 -->
<g id="edge13" class="edge"><title>a3&#45;&gt;b10</title>
<path fill="none" stroke="gray" d="M388.857,-310.856C393.122,-296.405 399.138,-276.023 404.001,-259.548"/>
<polygon fill="gray" stroke="gray" points="406.854,-249.883 408.339,-260.748 405.438,-254.678 404.023,-259.474 404.023,-259.474 404.023,-259.474 405.438,-254.678 399.707,-258.2 406.854,-249.883 406.854,-249.883"/>
</g>
<!-- b2&#45;&gt;B -->
<g id="edge3" class="edge"><title>b2&#45;&gt;B</title>
<path fill="none" stroke="gray" stroke-width="0.8" d="M196.94,-77.4149C223.818,-90.9514 264.026,-115.432 285.539,-149.07 300.176,-171.957 304.781,-202.997 306.048,-225.288"/>
<polygon fill="gray" stroke="gray" stroke-width="0.8" points="306.431,-235.454 301.558,-225.63 306.243,-230.457 306.055,-225.461 306.055,-225.461 306.055,-225.461 306.243,-230.457 310.551,-225.291 306.431,-235.454 306.431,-235.454"/>
</g>
<!-- B&#45;&gt;b7 -->
<g id="edge9" class="edge"><title>B&#45;&gt;b7</title>
<path fill="none" stroke="gray" stroke-width="0.8" d="M296.964,-235.422C291.591,-225.105 284.39,-211.851 274.913,-196.806"/>
<polygon fill="gray" stroke="gray" stroke-width="0.8" points="269.411,-188.27 278.612,-194.237 272.12,-192.473 274.829,-196.676 274.829,-196.676 274.829,-196.676 272.12,-192.473 271.047,-199.114 269.411,-188.27 269.411,-188.27"/>
</g>
<!-- B&#45;&gt;b10 -->
<g id="edge10" class="edge"><title>B&#45;&gt;b10</title>
<path fill="none" stroke="gray" stroke-width="0.8" d="M333.154,-247.958C345.881,-245.326 361.26,-242.147 375.06,-239.294"/>
<polygon fill="gray" stroke="gray" stroke-width="0.8" points="385.235,-237.19 376.353,-243.622 380.339,-238.202 375.442,-239.215 375.442,-239.215 375.442,-239.215 380.339,-238.202 374.531,-234.808 385.235,-237.19 385.235,-237.19"/>
</g>
<!-- B&#45;&gt;b16 -->
<g id="edge11" class="edge"><title>B&#45;&gt;b16</title>
<path fill="none" stroke="gray" stroke-width="0.8" d="M289.287,-271.756C279.345,-282.526 266.597,-296.335 255.656,-308.187"/>
<polygon fill="gray" stroke="gray" stroke-width="0.8" points="248.774,-315.642 252.25,-305.242 252.165,-311.968 255.557,-308.294 255.557,-308.294 255.557,-308.294 252.165,-311.968 258.863,-311.347 248.774,-315.642 248.774,-315.642"/>
</g>
<!-- b3&#45;&gt;B -->
<g id="edge4" class="edge"><title>b3&#45;&gt;B</title>
<path fill="none" stroke="gray" stroke-width="0.8" d="M161.92,-174.951C171.561,-181.619 182.045,-189.859 190.259,-198.83 203.092,-212.846 196.713,-224.589 212.29,-235.474 228.616,-246.883 250.268,-251.567 268.656,-253.323"/>
<polygon fill="gray" stroke="gray" stroke-width="0.8" points="278.76,-254.036 268.468,-257.821 273.772,-253.684 268.784,-253.332 268.784,-253.332 268.784,-253.332 273.772,-253.684 269.101,-248.844 278.76,-254.036 278.76,-254.036"/>
</g>
<!-- b4&#45;&gt;B -->
<g id="edge5" class="edge"><title>b4&#45;&gt;B</title>
<path fill="none" stroke="gray" stroke-width="0.8" d="M187.302,-228.629C195.309,-231.009 204.113,-233.482 212.29,-235.474 230.704,-239.96 251.371,-244.043 268.609,-247.19"/>
<polygon fill="gray" stroke="gray" stroke-width="0.8" points="278.849,-249.023 268.212,-251.69 273.927,-248.142 269.005,-247.261 269.005,-247.261 269.005,-247.261 273.927,-248.142 269.798,-242.831 278.849,-249.023 278.849,-249.023"/>
</g>
<!-- b5&#45;&gt;B -->
<g id="edge6" class="edge"><title>b5&#45;&gt;B</title>
<path fill="none" stroke="gray" stroke-width="0.8" d="M134.361,-118.844C144.292,-124.077 155.41,-130.454 164.931,-137.2 194.327,-158.026 191.732,-177.986 225.139,-191.47 230.041,-193.449 268.183,-190.311 272.69,-193.074 284.632,-200.395 292.629,-213.622 297.796,-225.843"/>
<polygon fill="gray" stroke="gray" stroke-width="0.8" points="301.353,-235.297 293.619,-227.523 299.592,-230.617 297.831,-225.938 297.831,-225.938 297.831,-225.938 299.592,-230.617 302.043,-224.353 301.353,-235.297 301.353,-235.297"/>
</g>
<!-- b6&#45;&gt;B -->
<g id="edge7" class="edge"><title>b6&#45;&gt;B</title>
<path fill="none" stroke="gray" stroke-width="0.8" d="M52.9483,-137.102C65.4036,-150.83 84.2535,-169.066 104.531,-179.6 139.182,-197.601 158.594,-175.981 190.259,-198.83 205.669,-209.95 196.713,-224.589 212.29,-235.474 228.616,-246.883 250.268,-251.567 268.656,-253.323"/>
<polygon fill="gray" stroke="gray" stroke-width="0.8" points="278.76,-254.036 268.468,-257.821 273.772,-253.684 268.784,-253.332 268.784,-253.332 268.784,-253.332 273.772,-253.684 269.101,-248.844 278.76,-254.036 278.76,-254.036"/>
</g>
<!-- b6&#45;&gt;b19 -->
<g id="edge8" class="edge"><title>b6&#45;&gt;b19</title>
<path fill="none" stroke="gray" stroke-width="0.8" d="M51.4002,-137.238C74.8111,-168.695 122.828,-233.215 149.847,-269.52"/>
<polygon fill="gray" stroke="gray" stroke-width="0.8" points="155.917,-277.676 146.336,-272.34 152.932,-273.664 149.946,-269.653 149.946,-269.653 149.946,-269.653 152.932,-273.664 153.556,-266.967 155.917,-277.676 155.917,-277.676"/>
</g>
<!-- b19&#45;&gt;a10 -->
<g id="edge26" class="edge"><title>b19&#45;&gt;a10</title>
<path fill="none" stroke="gray" stroke-width="0.8" d="M185.647,-277.736C195.578,-266.648 208.447,-252.281 219.428,-240.021"/>
<polygon fill="gray" stroke="gray" stroke-width="0.8" points="226.321,-232.325 223.001,-242.776 222.985,-236.05 219.649,-239.774 219.649,-239.774 219.649,-239.774 222.985,-236.05 216.297,-236.772 226.321,-232.325 226.321,-232.325"/>
</g>
<!-- a2&#45;&gt;b10 -->
<g id="edge12" class="edge"><title>a2&#45;&gt;b10</title>
<path fill="none" stroke="gray" stroke-width="0.8" d="M399.688,-131.861C402.079,-150.847 405.864,-180.903 408.654,-203.064"/>
<polygon fill="gray" stroke="gray" stroke-width="0.8" points="409.934,-213.225 404.22,-203.866 409.309,-208.265 408.685,-203.304 408.685,-203.304 408.685,-203.304 409.309,-208.265 413.149,-202.742 409.934,-213.225 409.934,-213.225"/>
</g>
<!-- a4&#45;&gt;b10 -->
<g id="edge14" class="edge"><title>a4&#45;&gt;b10</title>
<path fill="none" stroke="gray" stroke-width="1.5" d="M483.598,-221.881C473.044,-223.319 460.784,-224.99 449.436,-226.537"/>
<polygon fill="gray" stroke="gray" stroke-width="1.5" points="439.346,-227.912 448.647,-222.103 444.266,-226.989 449.221,-226.314 449.254,-226.562 449.288,-226.809 444.334,-227.485 449.862,-231.02 439.346,-227.912 439.346,-227.912"/>
</g>
<!-- a5&#45;&gt;b10 -->
<g id="edge15" class="edge"><title>a5&#45;&gt;b10</title>
<path fill="none" stroke="red" stroke-width="3" d="M449.069,-169.113C445.994,-174.332 442.501,-180.26 438.921,-186.336"/>
<path fill="none" stroke="blue" stroke-width="3" d="M438.921,-186.336C435.341,-192.412 431.673,-198.637 428.248,-204.45"/>
<polygon fill="blue" stroke="blue" stroke-width="3" points="423.013,-213.335 424.212,-202.435 424.69,-208.52 427.228,-204.212 428.09,-204.719 428.951,-205.227 426.413,-209.535 431.967,-207.004 423.013,-213.335 423.013,-213.335"/>
</g>
<!-- a6&#45;&gt;b10 -->
<g id="edge16" class="edge"><title>a6&#45;&gt;b10</title>
<path fill="none" stroke="gray" stroke-width="0.8" d="M478.704,-256.306C469.482,-252.878 459.007,-248.985 449.144,-245.319"/>
<polygon fill="gray" stroke="gray" stroke-width="0.8" points="439.556,-241.755 450.497,-241.021 444.242,-243.497 448.929,-245.239 448.929,-245.239 448.929,-245.239 444.242,-243.497 447.361,-249.457 439.556,-241.755 439.556,-241.755"/>
</g>
<!-- a7&#45;&gt;b10 -->
<g id="edge17" class="edge"><title>a7&#45;&gt;b10</title>
<path fill="none" stroke="gray" stroke-width="0.8" d="M453.184,-295.426C446.168,-284.488 437.117,-270.376 429.31,-258.205"/>
<polygon fill="gray" stroke="gray" stroke-width="0.8" points="423.892,-249.758 433.079,-255.746 426.591,-253.967 429.291,-258.176 429.291,-258.176 429.291,-258.176 426.591,-253.967 425.503,-260.605 423.892,-249.758 423.892,-249.758"/>
</g>
<!-- a8&#45;&gt;b16 -->
<g id="edge18" class="edge"><title>a8&#45;&gt;b16</title>
<path fill="none" stroke="gray" stroke-width="0.8" d="M170.267,-383.709C176.001,-375.329 183.471,-365.646 191.616,-358.25 193.119,-356.886 194.709,-355.556 196.356,-354.267"/>
<polygon fill="gray" stroke="gray" stroke-width="0.8" points="204.915,-348.194 199.363,-357.651 200.837,-351.087 196.759,-353.981 196.759,-353.981 196.759,-353.981 200.837,-351.087 194.155,-350.311 204.915,-348.194 204.915,-348.194"/>
</g>
<!-- a9&#45;&gt;a5 -->
<g id="edge27" class="edge"><title>a9&#45;&gt;a5</title>
<path fill="none" stroke="gray" stroke-width="0.8" d="M518.719,-108.526C510.739,-114.255 501.791,-120.678 493.328,-126.754"/>
<polygon fill="gray" stroke="gray" stroke-width="0.8" points="485.081,-132.675 490.58,-123.188 489.143,-129.759 493.204,-126.843 493.204,-126.843 493.204,-126.843 489.143,-129.759 495.829,-130.499 485.081,-132.675 485.081,-132.675"/>
</g>
<!-- a9&#45;&gt;b17 -->
<g id="edge19" class="edge"><title>a9&#45;&gt;b17</title>
<path fill="none" stroke="gray" stroke-width="0.8" d="M569.705,-72.3123C576.536,-67.5113 584.02,-62.2519 591.221,-57.1905"/>
<polygon fill="gray" stroke="gray" stroke-width="0.8" points="599.491,-51.3791 593.896,-60.8108 595.4,-54.2541 591.309,-57.1291 591.309,-57.1291 591.309,-57.1291 595.4,-54.2541 588.721,-53.4473 599.491,-51.3791 599.491,-51.3791"/>
</g>
<!-- a10&#45;&gt;b5 -->
<g id="edge21" class="edge"><title>a10&#45;&gt;b5</title>
<path fill="none" stroke="gray" stroke-width="0.8" d="M226.813,-195.963C211.976,-179.334 188.519,-154.789 164.931,-137.2 158.289,-132.247 150.775,-127.572 143.415,-123.414"/>
<polygon fill="gray" stroke="gray" stroke-width="0.8" points="134.25,-118.442 145.185,-119.256 138.644,-120.826 143.039,-123.211 143.039,-123.211 143.039,-123.211 138.644,-120.826 140.893,-127.166 134.25,-118.442 134.25,-118.442"/>
</g>
<!-- a10&#45;&gt;b18 -->
<g id="edge20" class="edge"><title>a10&#45;&gt;b18</title>
<path fill="none" stroke="gray" stroke-width="0.8" d="M269.856,-199.869C275.072,-197.098 280.48,-194.206 285.539,-191.47 291.661,-188.159 298.148,-184.612 304.437,-181.153"/>
<polygon fill="gray" stroke="gray" stroke-width="0.8" points="313.446,-176.184 306.863,-184.954 309.068,-178.599 304.689,-181.014 304.689,-181.014 304.689,-181.014 309.068,-178.599 302.516,-177.073 313.446,-176.184 313.446,-176.184"/>
</g>
<!-- b18&#45;&gt;a5 -->
<g id="edge24" class="edge"><title>b18&#45;&gt;a5</title>
<path fill="none" stroke="gray" stroke-width="0.8" d="M367.605,-158.766C383.819,-157.361 404.662,-155.555 422.435,-154.014"/>
<polygon fill="gray" stroke="gray" stroke-width="0.8" points="432.487,-153.143 422.913,-158.49 427.506,-153.575 422.524,-154.007 422.524,-154.007 422.524,-154.007 427.506,-153.575 422.136,-149.524 432.487,-153.143 432.487,-153.143"/>
</g>
<!-- a11&#45;&gt;b19 -->
<g id="edge22" class="edge"><title>a11&#45;&gt;b19</title>
<path fill="none" stroke="gray" stroke-width="0.8" d="M98.0537,-307.685C108.613,-305.933 120.877,-303.897 132.23,-302.012"/>
<polygon fill="gray" stroke="gray" stroke-width="0.8" points="142.324,-300.337 133.196,-306.414 137.392,-301.156 132.459,-301.974 132.459,-301.974 132.459,-301.974 137.392,-301.156 131.722,-297.535 142.324,-300.337 142.324,-300.337"/>
</g>
<!-- a12&#45;&gt;b18 -->
<g id="edge28" class="edge"><title>a12&#45;&gt;b18</title>
<path fill="none" stroke="gray" stroke-width="0.8" d="M325.588,-80.5904C328.304,-95.2326 332.176,-116.115 335.298,-132.944"/>
<polygon fill="gray" stroke="gray" stroke-width="0.8" points="337.127,-142.808 330.879,-133.796 336.215,-137.891 335.303,-132.975 335.303,-132.975 335.303,-132.975 336.215,-137.891 339.728,-132.155 337.127,-142.808 337.127,-142.808"/>
</g>
<!-- a12&#45;&gt;b20 -->
<g id="edge23" class="edge"><title>a12&#45;&gt;b20</title>
<path fill="none" stroke="gray" stroke-width="0.8" d="M349.613,-45.8719C353.007,-43.8101 356.515,-41.6789 360.012,-39.5551"/>
<polygon fill="gray" stroke="gray" stroke-width="0.8" points="368.605,-34.3349 362.395,-43.3728 364.332,-36.9308 360.058,-39.5268 360.058,-39.5268 360.058,-39.5268 364.332,-36.9308 357.722,-35.6808 368.605,-34.3349 368.605,-34.3349"/>
</g>
<!-- b20&#45;&gt;a2 -->
<g id="edge29" class="edge"><title>b20&#45;&gt;a2</title>
<path fill="none" stroke="gray" stroke-width="0.8" d="M396.071,-35.8678C396.307,-49.7043 396.638,-69.0758 396.911,-85.0307"/>
<polygon fill="gray" stroke="gray" stroke-width="0.8" points="397.089,-95.4206 392.418,-85.499 397.003,-90.4213 396.918,-85.422 396.918,-85.422 396.918,-85.422 397.003,-90.4213 401.417,-85.3451 397.089,-95.4206 397.089,-95.4206"/>
</g>
<!-- a1 -->
<g id="node1" class="node"><title>a1</title>
<defs>
<linearGradient id="l_1" gradientUnits="userSpaceOnUse" x1="316.911" y1="-422.406" x2="316.911" y2="-386.406" >
<stop offset="0" style="stop-color:red;stop-opacity:1.;"/>
<stop offset="1" style="stop-color:white;stop-opacity:1.;"/>
</linearGradient>
</defs>
<path fill="url(#l_1)" stroke="gray" d="M331.911,-422.406C331.911,-422.406 301.911,-422.406 301.911,-422.406 295.911,-422.406 289.911,-416.406 289.911,-410.406 289.911,-410.406 289.911,-398.406 289.911,-398.406 289.911,-392.406 295.911,-386.406 301.911,-386.406 301.911,-386.406 331.911,-386.406 331.911,-386.406 337.911,-386.406 343.911,-392.406 343.911,-398.406 343.911,-398.406 343.911,-410.406 343.911,-410.406 343.911,-416.406 337.911,-422.406 331.911,-422.406"/>
<text text-anchor="middle" x="316.911" y="-400.706" font-family="Times,serif" font-size="14.00">a1</text>
</g>
<!-- b1 -->
<g id="node2" class="node"><title>b1</title>
<defs>
<linearGradient id="l_2" gradientUnits="userSpaceOnUse" x1="221.816" y1="-397.45" x2="221.816" y2="-361.45" >
<stop offset="0" style="stop-color:red;stop-opacity:1.;"/>
<stop offset="1" style="stop-color:white;stop-opacity:1.;"/>
</linearGradient>
</defs>
<path fill="url(#l_2)" stroke="gray" d="M236.816,-397.45C236.816,-397.45 206.816,-397.45 206.816,-397.45 200.816,-397.45 194.816,-391.45 194.816,-385.45 194.816,-385.45 194.816,-373.45 194.816,-373.45 194.816,-367.45 200.816,-361.45 206.816,-361.45 206.816,-361.45 236.816,-361.45 236.816,-361.45 242.816,-361.45 248.816,-367.45 248.816,-373.45 248.816,-373.45 248.816,-385.45 248.816,-385.45 248.816,-391.45 242.816,-397.45 236.816,-397.45"/>
<text text-anchor="middle" x="221.816" y="-375.75" font-family="Times,serif" font-size="14.00">b1</text>
</g>
<!-- a3 -->
<g id="node3" class="node"><title>a3</title>
<defs>
<linearGradient id="l_3" gradientUnits="userSpaceOnUse" x1="383.438" y1="-347.216" x2="383.438" y2="-311.216" >
<stop offset="0" style="stop-color:red;stop-opacity:1.;"/>
<stop offset="1" style="stop-color:white;stop-opacity:1.;"/>
</linearGradient>
</defs>
<path fill="url(#l_3)" stroke="gray" d="M398.438,-347.216C398.438,-347.216 368.438,-347.216 368.438,-347.216 362.438,-347.216 356.438,-341.216 356.438,-335.216 356.438,-335.216 356.438,-323.216 356.438,-323.216 356.438,-317.216 362.438,-311.216 368.438,-311.216 368.438,-311.216 398.438,-311.216 398.438,-311.216 404.438,-311.216 410.438,-317.216 410.438,-323.216 410.438,-323.216 410.438,-335.216 410.438,-335.216 410.438,-341.216 404.438,-347.216 398.438,-347.216"/>
<text text-anchor="middle" x="383.438" y="-325.516" font-family="Times,serif" font-size="14.00">a3</text>
</g>
<!-- b2 -->
<g id="node4" class="node"><title>b2</title>
<defs>
<linearGradient id="l_4" gradientUnits="userSpaceOnUse" x1="169.86" y1="-83.2505" x2="169.86" y2="-47.2505" >
<stop offset="0" style="stop-color:red;stop-opacity:1.;"/>
<stop offset="1" style="stop-color:white;stop-opacity:1.;"/>
</linearGradient>
</defs>
<path fill="url(#l_4)" stroke="gray" d="M184.86,-83.2505C184.86,-83.2505 154.86,-83.2505 154.86,-83.2505 148.86,-83.2505 142.86,-77.2505 142.86,-71.2505 142.86,-71.2505 142.86,-59.2505 142.86,-59.2505 142.86,-53.2505 148.86,-47.2505 154.86,-47.2505 154.86,-47.2505 184.86,-47.2505 184.86,-47.2505 190.86,-47.2505 196.86,-53.2505 196.86,-59.2505 196.86,-59.2505 196.86,-71.2505 196.86,-71.2505 196.86,-77.2505 190.86,-83.2505 184.86,-83.2505"/>
<text text-anchor="middle" x="169.86" y="-61.5505" font-family="Times,serif" font-size="14.00">b2</text>
</g>
<!-- B -->
<g id="node5" class="node"><title>B</title>
<defs>
<linearGradient id="l_5" gradientUnits="userSpaceOnUse" x1="306.091" y1="-271.553" x2="306.091" y2="-235.553" >
<stop offset="0" style="stop-color:red;stop-opacity:1.;"/>
<stop offset="1" style="stop-color:white;stop-opacity:1.;"/>
</linearGradient>
</defs>
<path fill="url(#l_5)" stroke="gray" d="M321.091,-271.553C321.091,-271.553 291.091,-271.553 291.091,-271.553 285.091,-271.553 279.091,-265.553 279.091,-259.553 279.091,-259.553 279.091,-247.553 279.091,-247.553 279.091,-241.553 285.091,-235.553 291.091,-235.553 291.091,-235.553 321.091,-235.553 321.091,-235.553 327.091,-235.553 333.091,-241.553 333.091,-247.553 333.091,-247.553 333.091,-259.553 333.091,-259.553 333.091,-265.553 327.091,-271.553 321.091,-271.553"/>
<text text-anchor="middle" x="306.091" y="-249.853" font-family="Times,serif" font-size="14.00">B</text>
</g>
<!-- b3 -->
<g id="node6" class="node"><title>b3</title>
<defs>
<linearGradient id="l_6" gradientUnits="userSpaceOnUse" x1="134.731" y1="-176.4" x2="134.731" y2="-140.4" >
<stop offset="0" style="stop-color:red;stop-opacity:1.;"/>
<stop offset="1" style="stop-color:white;stop-opacity:1.;"/>
</linearGradient>
</defs>
<path fill="url(#l_6)" stroke="gray" d="M149.731,-176.4C149.731,-176.4 119.731,-176.4 119.731,-176.4 113.731,-176.4 107.731,-170.4 107.731,-164.4 107.731,-164.4 107.731,-152.4 107.731,-152.4 107.731,-146.4 113.731,-140.4 119.731,-140.4 119.731,-140.4 149.731,-140.4 149.731,-140.4 155.731,-140.4 161.731,-146.4 161.731,-152.4 161.731,-152.4 161.731,-164.4 161.731,-164.4 161.731,-170.4 155.731,-176.4 149.731,-176.4"/>
<text text-anchor="middle" x="134.731" y="-154.7" font-family="Times,serif" font-size="14.00">b3</text>
</g>
<!-- b4 -->
<g id="node7" class="node"><title>b4</title>
<defs>
<linearGradient id="l_7" gradientUnits="userSpaceOnUse" x1="160.059" y1="-238.03" x2="160.059" y2="-202.03" >
<stop offset="0" style="stop-color:red;stop-opacity:1.;"/>
<stop offset="1" style="stop-color:white;stop-opacity:1.;"/>
</linearGradient>
</defs>
<path fill="url(#l_7)" stroke="gray" d="M175.059,-238.03C175.059,-238.03 145.059,-238.03 145.059,-238.03 139.059,-238.03 133.059,-232.03 133.059,-226.03 133.059,-226.03 133.059,-214.03 133.059,-214.03 133.059,-208.03 139.059,-202.03 145.059,-202.03 145.059,-202.03 175.059,-202.03 175.059,-202.03 181.059,-202.03 187.059,-208.03 187.059,-214.03 187.059,-214.03 187.059,-226.03 187.059,-226.03 187.059,-232.03 181.059,-238.03 175.059,-238.03"/>
<text text-anchor="middle" x="160.059" y="-216.33" font-family="Times,serif" font-size="14.00">b4</text>
</g>
<!-- b5 -->
<g id="node8" class="node"><title>b5</title>
<defs>
<linearGradient id="l_8" gradientUnits="userSpaceOnUse" x1="107.079" y1="-123.656" x2="107.079" y2="-87.6559" >
<stop offset="0" style="stop-color:red;stop-opacity:1.;"/>
<stop offset="1" style="stop-color:white;stop-opacity:1.;"/>
</linearGradient>
</defs>
<path fill="url(#l_8)" stroke="gray" d="M122.079,-123.656C122.079,-123.656 92.0789,-123.656 92.0789,-123.656 86.0789,-123.656 80.0789,-117.656 80.0789,-111.656 80.0789,-111.656 80.0789,-99.6559 80.0789,-99.6559 80.0789,-93.6559 86.0789,-87.6559 92.0789,-87.6559 92.0789,-87.6559 122.079,-87.6559 122.079,-87.6559 128.079,-87.6559 134.079,-93.6559 134.079,-99.6559 134.079,-99.6559 134.079,-111.656 134.079,-111.656 134.079,-117.656 128.079,-123.656 122.079,-123.656"/>
<text text-anchor="middle" x="107.079" y="-101.956" font-family="Times,serif" font-size="14.00">b5</text>
</g>
<!-- b6 -->
<g id="node9" class="node"><title>b6</title>
<defs>
<linearGradient id="l_9" gradientUnits="userSpaceOnUse" x1="37.8099" y1="-136.977" x2="37.8099" y2="-100.977" >
<stop offset="0" style="stop-color:red;stop-opacity:1.;"/>
<stop offset="1" style="stop-color:white;stop-opacity:1.;"/>
</linearGradient>
</defs>
<path fill="url(#l_9)" stroke="gray" d="M52.8099,-136.977C52.8099,-136.977 22.8099,-136.977 22.8099,-136.977 16.8099,-136.977 10.8099,-130.977 10.8099,-124.977 10.8099,-124.977 10.8099,-112.977 10.8099,-112.977 10.8099,-106.977 16.8099,-100.977 22.8099,-100.977 22.8099,-100.977 52.8099,-100.977 52.8099,-100.977 58.8099,-100.977 64.8099,-106.977 64.8099,-112.977 64.8099,-112.977 64.8099,-124.977 64.8099,-124.977 64.8099,-130.977 58.8099,-136.977 52.8099,-136.977"/>
<text text-anchor="middle" x="37.8099" y="-115.277" font-family="Times,serif" font-size="14.00">b6</text>
</g>
<!-- b19 -->
<g id="node10" class="node"><title>b19</title>
<defs>
<linearGradient id="l_10" gradientUnits="userSpaceOnUse" x1="169.433" y1="-313.837" x2="169.433" y2="-277.837" >
<stop offset="0" style="stop-color:red;stop-opacity:1.;"/>
<stop offset="1" style="stop-color:white;stop-opacity:1.;"/>
</linearGradient>
</defs>
<path fill="url(#l_10)" stroke="gray" d="M184.433,-313.837C184.433,-313.837 154.433,-313.837 154.433,-313.837 148.433,-313.837 142.433,-307.837 142.433,-301.837 142.433,-301.837 142.433,-289.837 142.433,-289.837 142.433,-283.837 148.433,-277.837 154.433,-277.837 154.433,-277.837 184.433,-277.837 184.433,-277.837 190.433,-277.837 196.433,-283.837 196.433,-289.837 196.433,-289.837 196.433,-301.837 196.433,-301.837 196.433,-307.837 190.433,-313.837 184.433,-313.837"/>
<text text-anchor="middle" x="169.433" y="-292.137" font-family="Times,serif" font-size="14.00">b19</text>
</g>
<!-- b7 -->
<g id="node11" class="node"><title>b7</title>
<defs>
<linearGradient id="l_11" gradientUnits="userSpaceOnUse" x1="255.339" y1="-188.27" x2="255.339" y2="-152.27" >
<stop offset="0" style="stop-color:red;stop-opacity:1.;"/>
<stop offset="1" style="stop-color:white;stop-opacity:1.;"/>
</linearGradient>
</defs>
<path fill="url(#l_11)" stroke="gray" d="M270.339,-188.27C270.339,-188.27 240.339,-188.27 240.339,-188.27 234.339,-188.27 228.339,-182.27 228.339,-176.27 228.339,-176.27 228.339,-164.27 228.339,-164.27 228.339,-158.27 234.339,-152.27 240.339,-152.27 240.339,-152.27 270.339,-152.27 270.339,-152.27 276.339,-152.27 282.339,-158.27 282.339,-164.27 282.339,-164.27 282.339,-176.27 282.339,-176.27 282.339,-182.27 276.339,-188.27 270.339,-188.27"/>
<text text-anchor="middle" x="255.339" y="-166.57" font-family="Times,serif" font-size="14.00">b7</text>
</g>
<!-- b10 -->
<g id="node12" class="node"><title>b10</title>
<defs>
<linearGradient id="l_12" gradientUnits="userSpaceOnUse" x1="412.248" y1="-249.605" x2="412.248" y2="-213.605" >
<stop offset="0" style="stop-color:red;stop-opacity:1.;"/>
<stop offset="1" style="stop-color:white;stop-opacity:1.;"/>
</linearGradient>
</defs>
<path fill="url(#l_12)" stroke="gray" d="M427.248,-249.605C427.248,-249.605 397.248,-249.605 397.248,-249.605 391.248,-249.605 385.248,-243.605 385.248,-237.605 385.248,-237.605 385.248,-225.605 385.248,-225.605 385.248,-219.605 391.248,-213.605 397.248,-213.605 397.248,-213.605 427.248,-213.605 427.248,-213.605 433.248,-213.605 439.248,-219.605 439.248,-225.605 439.248,-225.605 439.248,-237.605 439.248,-237.605 439.248,-243.605 433.248,-249.605 427.248,-249.605"/>
<text text-anchor="middle" x="412.248" y="-227.905" font-family="Times,serif" font-size="14.00">b10</text>
</g>
<!-- b16 -->
<g id="node13" class="node"><title>b16</title>
<defs>
<linearGradient id="l_13" gradientUnits="userSpaceOnUse" x1="232.036" y1="-351.774" x2="232.036" y2="-315.774" >
<stop offset="0" style="stop-color:red;stop-opacity:1.;"/>
<stop offset="1" style="stop-color:white;stop-opacity:1.;"/>
</linearGradient>
</defs>
<path fill="url(#l_13)" stroke="gray" d="M247.036,-351.774C247.036,-351.774 217.036,-351.774 217.036,-351.774 211.036,-351.774 205.036,-345.774 205.036,-339.774 205.036,-339.774 205.036,-327.774 205.036,-327.774 205.036,-321.774 211.036,-315.774 217.036,-315.774 217.036,-315.774 247.036,-315.774 247.036,-315.774 253.036,-315.774 259.036,-321.774 259.036,-327.774 259.036,-327.774 259.036,-339.774 259.036,-339.774 259.036,-345.774 253.036,-351.774 247.036,-351.774"/>
<text text-anchor="middle" x="232.036" y="-330.074" font-family="Times,serif" font-size="14.00">b16</text>
</g>
<!-- a2 -->
<g id="node14" class="node"><title>a2</title>
<defs>
<linearGradient id="l_14" gradientUnits="userSpaceOnUse" x1="397.401" y1="-131.696" x2="397.401" y2="-95.6958" >
<stop offset="0" style="stop-color:red;stop-opacity:1.;"/>
<stop offset="1" style="stop-color:white;stop-opacity:1.;"/>
</linearGradient>
</defs>
<path fill="url(#l_14)" stroke="gray" d="M412.401,-131.696C412.401,-131.696 382.401,-131.696 382.401,-131.696 376.401,-131.696 370.401,-125.696 370.401,-119.696 370.401,-119.696 370.401,-107.696 370.401,-107.696 370.401,-101.696 376.401,-95.6958 382.401,-95.6958 382.401,-95.6958 412.401,-95.6958 412.401,-95.6958 418.401,-95.6958 424.401,-101.696 424.401,-107.696 424.401,-107.696 424.401,-119.696 424.401,-119.696 424.401,-125.696 418.401,-131.696 412.401,-131.696"/>
<text text-anchor="middle" x="397.401" y="-109.996" font-family="Times,serif" font-size="14.00">a2</text>
</g>
<!-- a4 -->
<g id="node15" class="node"><title>a4</title>
<defs>
<linearGradient id="l_15" gradientUnits="userSpaceOnUse" x1="510.784" y1="-236.176" x2="510.784" y2="-200.176" >
<stop offset="0" style="stop-color:red;stop-opacity:1.;"/>
<stop offset="1" style="stop-color:white;stop-opacity:1.;"/>
</linearGradient>
</defs>
<path fill="url(#l_15)" stroke="gray" d="M525.784,-236.176C525.784,-236.176 495.784,-236.176 495.784,-236.176 489.784,-236.176 483.784,-230.176 483.784,-224.176 483.784,-224.176 483.784,-212.176 483.784,-212.176 483.784,-206.176 489.784,-200.176 495.784,-200.176 495.784,-200.176 525.784,-200.176 525.784,-200.176 531.784,-200.176 537.784,-206.176 537.784,-212.176 537.784,-212.176 537.784,-224.176 537.784,-224.176 537.784,-230.176 531.784,-236.176 525.784,-236.176"/>
<text text-anchor="middle" x="510.784" y="-214.476" font-family="Times,serif" font-size="14.00">a4</text>
</g>
<!-- a5 -->
<g id="node16" class="node"><title>a5</title>
<defs>
<linearGradient id="l_16" gradientUnits="userSpaceOnUse" x1="459.876" y1="-168.77" x2="459.876" y2="-132.77" >
<stop offset="0" style="stop-color:red;stop-opacity:1.;"/>
<stop offset="1" style="stop-color:white;stop-opacity:1.;"/>
</linearGradient>
</defs>
<path fill="url(#l_16)" stroke="gray" d="M474.876,-168.77C474.876,-168.77 444.876,-168.77 444.876,-168.77 438.876,-168.77 432.876,-162.77 432.876,-156.77 432.876,-156.77 432.876,-144.77 432.876,-144.77 432.876,-138.77 438.876,-132.77 444.876,-132.77 444.876,-132.77 474.876,-132.77 474.876,-132.77 480.876,-132.77 486.876,-138.77 486.876,-144.77 486.876,-144.77 486.876,-156.77 486.876,-156.77 486.876,-162.77 480.876,-168.77 474.876,-168.77"/>
<text text-anchor="middle" x="459.876" y="-147.07" font-family="Times,serif" font-size="14.00">a5</text>
</g>
<!-- a6 -->
<g id="node17" class="node"><title>a6</title>
<defs>
<linearGradient id="l_17" gradientUnits="userSpaceOnUse" x1="505.748" y1="-284.358" x2="505.748" y2="-248.358" >
<stop offset="0" style="stop-color:red;stop-opacity:1.;"/>
<stop offset="1" style="stop-color:white;stop-opacity:1.;"/>
</linearGradient>
</defs>
<path fill="url(#l_17)" stroke="gray" d="M520.748,-284.358C520.748,-284.358 490.748,-284.358 490.748,-284.358 484.748,-284.358 478.748,-278.358 478.748,-272.358 478.748,-272.358 478.748,-260.358 478.748,-260.358 478.748,-254.358 484.748,-248.358 490.748,-248.358 490.748,-248.358 520.748,-248.358 520.748,-248.358 526.748,-248.358 532.748,-254.358 532.748,-260.358 532.748,-260.358 532.748,-272.358 532.748,-272.358 532.748,-278.358 526.748,-284.358 520.748,-284.358"/>
<text text-anchor="middle" x="505.748" y="-262.658" font-family="Times,serif" font-size="14.00">a6</text>
</g>
<!-- a7 -->
<g id="node18" class="node"><title>a7</title>
<defs>
<linearGradient id="l_18" gradientUnits="userSpaceOnUse" x1="464.86" y1="-331.63" x2="464.86" y2="-295.63" >
<stop offset="0" style="stop-color:red;stop-opacity:1.;"/>
<stop offset="1" style="stop-color:white;stop-opacity:1.;"/>
</linearGradient>
</defs>
<path fill="url(#l_18)" stroke="gray" d="M479.86,-331.63C479.86,-331.63 449.86,-331.63 449.86,-331.63 443.86,-331.63 437.86,-325.63 437.86,-319.63 437.86,-319.63 437.86,-307.63 437.86,-307.63 437.86,-301.63 443.86,-295.63 449.86,-295.63 449.86,-295.63 479.86,-295.63 479.86,-295.63 485.86,-295.63 491.86,-301.63 491.86,-307.63 491.86,-307.63 491.86,-319.63 491.86,-319.63 491.86,-325.63 485.86,-331.63 479.86,-331.63"/>
<text text-anchor="middle" x="464.86" y="-309.93" font-family="Times,serif" font-size="14.00">a7</text>
</g>
<!-- a8 -->
<g id="node19" class="node"><title>a8</title>
<defs>
<linearGradient id="l_19" gradientUnits="userSpaceOnUse" x1="158.953" y1="-420.037" x2="158.953" y2="-384.037" >
<stop offset="0" style="stop-color:red;stop-opacity:1.;"/>
<stop offset="1" style="stop-color:white;stop-opacity:1.;"/>
</linearGradient>
</defs>
<path fill="url(#l_19)" stroke="gray" d="M173.953,-420.037C173.953,-420.037 143.953,-420.037 143.953,-420.037 137.953,-420.037 131.953,-414.037 131.953,-408.037 131.953,-408.037 131.953,-396.037 131.953,-396.037 131.953,-390.037 137.953,-384.037 143.953,-384.037 143.953,-384.037 173.953,-384.037 173.953,-384.037 179.953,-384.037 185.953,-390.037 185.953,-396.037 185.953,-396.037 185.953,-408.037 185.953,-408.037 185.953,-414.037 179.953,-420.037 173.953,-420.037"/>
<text text-anchor="middle" x="158.953" y="-398.337" font-family="Times,serif" font-size="14.00">a8</text>
</g>
<!-- a9 -->
<g id="node20" class="node"><title>a9</title>
<defs>
<linearGradient id="l_20" gradientUnits="userSpaceOnUse" x1="543.941" y1="-108.418" x2="543.941" y2="-72.4182" >
<stop offset="0" style="stop-color:red;stop-opacity:1.;"/>
<stop offset="1" style="stop-color:white;stop-opacity:1.;"/>
</linearGradient>
</defs>
<path fill="url(#l_20)" stroke="gray" d="M558.941,-108.418C558.941,-108.418 528.941,-108.418 528.941,-108.418 522.941,-108.418 516.941,-102.418 516.941,-96.4182 516.941,-96.4182 516.941,-84.4182 516.941,-84.4182 516.941,-78.4182 522.941,-72.4182 528.941,-72.4182 528.941,-72.4182 558.941,-72.4182 558.941,-72.4182 564.941,-72.4182 570.941,-78.4182 570.941,-84.4182 570.941,-84.4182 570.941,-96.4182 570.941,-96.4182 570.941,-102.418 564.941,-108.418 558.941,-108.418"/>
<text text-anchor="middle" x="543.941" y="-86.7182" font-family="Times,serif" font-size="14.00">a9</text>
</g>
<!-- b17 -->
<g id="node21" class="node"><title>b17</title>
<defs>
<linearGradient id="l_21" gradientUnits="userSpaceOnUse" x1="625.365" y1="-51.1946" x2="625.365" y2="-15.1946" >
<stop offset="0" style="stop-color:red;stop-opacity:1.;"/>
<stop offset="1" style="stop-color:white;stop-opacity:1.;"/>
</linearGradient>
</defs>
<path fill="url(#l_21)" stroke="gray" d="M640.365,-51.1946C640.365,-51.1946 610.365,-51.1946 610.365,-51.1946 604.365,-51.1946 598.365,-45.1946 598.365,-39.1946 598.365,-39.1946 598.365,-27.1946 598.365,-27.1946 598.365,-21.1946 604.365,-15.1946 610.365,-15.1946 610.365,-15.1946 640.365,-15.1946 640.365,-15.1946 646.365,-15.1946 652.365,-21.1946 652.365,-27.1946 652.365,-27.1946 652.365,-39.1946 652.365,-39.1946 652.365,-45.1946 646.365,-51.1946 640.365,-51.1946"/>
<text text-anchor="middle" x="625.365" y="-29.4946" font-family="Times,serif" font-size="14.00">b17</text>
</g>
<!-- a10 -->
<g id="node22" class="node"><title>a10</title>
<defs>
<linearGradient id="l_22" gradientUnits="userSpaceOnUse" x1="242.49" y1="-232.274" x2="242.49" y2="-196.274" >
<stop offset="0" style="stop-color:red;stop-opacity:1.;"/>
<stop offset="1" style="stop-color:white;stop-opacity:1.;"/>
</linearGradient>
</defs>
<path fill="url(#l_22)" stroke="gray" d="M257.49,-232.274C257.49,-232.274 227.49,-232.274 227.49,-232.274 221.49,-232.274 215.49,-226.274 215.49,-220.274 215.49,-220.274 215.49,-208.274 215.49,-208.274 215.49,-202.274 221.49,-196.274 227.49,-196.274 227.49,-196.274 257.49,-196.274 257.49,-196.274 263.49,-196.274 269.49,-202.274 269.49,-208.274 269.49,-208.274 269.49,-220.274 269.49,-220.274 269.49,-226.274 263.49,-232.274 257.49,-232.274"/>
<text text-anchor="middle" x="242.49" y="-210.574" font-family="Times,serif" font-size="14.00">a10</text>
</g>
<!-- b18 -->
<g id="node23" class="node"><title>b18</title>
<defs>
<linearGradient id="l_23" gradientUnits="userSpaceOnUse" x1="340.522" y1="-179.113" x2="340.522" y2="-143.113" >
<stop offset="0" style="stop-color:red;stop-opacity:1.;"/>
<stop offset="1" style="stop-color:white;stop-opacity:1.;"/>
</linearGradient>
</defs>
<path fill="url(#l_23)" stroke="gray" d="M355.522,-179.113C355.522,-179.113 325.522,-179.113 325.522,-179.113 319.522,-179.113 313.522,-173.113 313.522,-167.113 313.522,-167.113 313.522,-155.113 313.522,-155.113 313.522,-149.113 319.522,-143.113 325.522,-143.113 325.522,-143.113 355.522,-143.113 355.522,-143.113 361.522,-143.113 367.522,-149.113 367.522,-155.113 367.522,-155.113 367.522,-167.113 367.522,-167.113 367.522,-173.113 361.522,-179.113 355.522,-179.113"/>
<text text-anchor="middle" x="340.522" y="-157.413" font-family="Times,serif" font-size="14.00">b18</text>
</g>
<!-- a11 -->
<g id="node24" class="node"><title>a11</title>
<defs>
<linearGradient id="l_24" gradientUnits="userSpaceOnUse" x1="70.8561" y1="-330.2" x2="70.8561" y2="-294.2" >
<stop offset="0" style="stop-color:red;stop-opacity:1.;"/>
<stop offset="1" style="stop-color:white;stop-opacity:1.;"/>
</linearGradient>
</defs>
<path fill="url(#l_24)" stroke="gray" d="M85.8561,-330.2C85.8561,-330.2 55.8561,-330.2 55.8561,-330.2 49.8561,-330.2 43.8561,-324.2 43.8561,-318.2 43.8561,-318.2 43.8561,-306.2 43.8561,-306.2 43.8561,-300.2 49.8561,-294.2 55.8561,-294.2 55.8561,-294.2 85.8561,-294.2 85.8561,-294.2 91.8561,-294.2 97.8561,-300.2 97.8561,-306.2 97.8561,-306.2 97.8561,-318.2 97.8561,-318.2 97.8561,-324.2 91.8561,-330.2 85.8561,-330.2"/>
<text text-anchor="middle" x="70.8561" y="-308.5" font-family="Times,serif" font-size="14.00">a11</text>
</g>
<!-- a12 -->
<g id="node25" class="node"><title>a12</title>
<defs>
<linearGradient id="l_25" gradientUnits="userSpaceOnUse" x1="322.234" y1="-80.504" x2="322.234" y2="-44.504" >
<stop offset="0" style="stop-color:red;stop-opacity:1.;"/>
<stop offset="1" style="stop-color:white;stop-opacity:1.;"/>
</linearGradient>
</defs>
<path fill="url(#l_25)" stroke="gray" d="M337.234,-80.504C337.234,-80.504 307.234,-80.504 307.234,-80.504 301.234,-80.504 295.234,-74.504 295.234,-68.504 295.234,-68.504 295.234,-56.504 295.234,-56.504 295.234,-50.504 301.234,-44.504 307.234,-44.504 307.234,-44.504 337.234,-44.504 337.234,-44.504 343.234,-44.504 349.234,-50.504 349.234,-56.504 349.234,-56.504 349.234,-68.504 349.234,-68.504 349.234,-74.504 343.234,-80.504 337.234,-80.504"/>
<text text-anchor="middle" x="322.234" y="-58.804" font-family="Times,serif" font-size="14.00">a12</text>
</g>
<!-- b20 -->
<g id="node26" class="node"><title>b20</title>
<defs>
<linearGradient id="l_26" gradientUnits="userSpaceOnUse" x1="395.762" y1="-35.8376" x2="395.762" y2="0.162357" >
<stop offset="0" style="stop-color:red;stop-opacity:1.;"/>
<stop offset="1" style="stop-color:white;stop-opacity:1.;"/>
</linearGradient>
</defs>
<path fill="url(#l_26)" stroke="gray" d="M410.762,-35.8376C410.762,-35.8376 380.762,-35.8376 380.762,-35.8376 374.762,-35.8376 368.762,-29.8376 368.762,-23.8376 368.762,-23.8376 368.762,-11.8376 368.762,-11.8376 368.762,-5.83764 374.762,0.162357 380.762,0.162357 380.762,0.162357 410.762,0.162357 410.762,0.162357 416.762,0.162357 422.762,-5.83764 422.762,-11.8376 422.762,-11.8376 422.762,-23.8376 422.762,-23.8376 422.762,-29.8376 416.762,-35.8376 410.762,-35.8376"/>
<text text-anchor="middle" x="395.762" y="-14.1376" font-family="Times,serif" font-size="14.00">b20</text>
</g>
</g>
</svg>
